<svg width="16" height="16" viewBox="0 0 16 16" fill="none" xmlns="http://www.w3.org/2000/svg">
<g clip-path="url(#clip0_14214_134359)">
<path d="M11.5789 6L12.1182 5.80298C13.0911 5.44747 13.5776 5.26972 13.9648 5.3763C14.3038 5.4696 14.5974 5.70153 14.7853 6.02452C15 6.3935 15 6.9556 15 8.07982V8.92018C15 10.0444 15 10.6065 14.7853 10.9755C14.5974 11.2985 14.3038 11.5304 13.9648 11.6237C13.5776 11.7303 13.0911 11.5525 12.1182 11.197L11.5789 11M4.18947 13H9.38947C10.1559 13 10.5391 13 10.8318 12.8365C11.0893 12.6927 11.2986 12.4632 11.4298 12.181C11.5789 11.8601 11.5789 11.4401 11.5789 10.6V6.4C11.5789 5.55992 11.5789 5.13988 11.4298 4.81901C11.2986 4.53677 11.0893 4.3073 10.8318 4.16349C10.5391 4 10.1559 4 9.38947 4H4.18947C3.42309 4 3.03989 4 2.74717 4.16349C2.48969 4.3073 2.28034 4.53677 2.14915 4.81901C2 5.13988 2 5.55992 2 6.4V10.6C2 11.4401 2 11.8601 2.14915 12.181C2.28034 12.4632 2.48969 12.6927 2.74717 12.8365C3.03989 13 3.42309 13 4.18947 13Z" stroke="#191243" stroke-width="1.5" stroke-linecap="round"/>
</g>
<defs>
<clipPath id="clip0_14214_134359">
<rect width="16" height="16" fill="white"/>
</clipPath>
</defs>
</svg>
