<svg viewBox="0 0 34 34" fill="none" xmlns="http://www.w3.org/2000/svg">
    <g clip-path="url(#clip0_3378_3057)">
        <path
            d="M17 14V18M17 22H17.01M15.24 8.95696L6.81802 23.017C6.64449 23.3177 6.5527 23.6585 6.55177 24.0057C6.55083 24.3529 6.64078 24.6943 6.81268 24.9959C6.98458 25.2975 7.23244 25.5489 7.53162 25.7251C7.83079 25.9012 8.17086 25.996 8.51802 26H25.363C25.7102 25.996 26.0502 25.9012 26.3494 25.7251C26.6486 25.5489 26.8965 25.2975 27.0684 24.9959C27.2403 24.6943 27.3302 24.3529 27.3293 24.0057C27.3283 23.6585 27.2365 23.3177 27.063 23.017L18.64 8.95696C18.4627 8.66495 18.2131 8.42355 17.9153 8.25602C17.6176 8.08849 17.2817 8.00049 16.94 8.00049C16.5984 8.00049 16.2625 8.08849 15.9647 8.25602C15.667 8.42355 15.4174 8.66495 15.24 8.95696Z"
            stroke="currentColor" stroke-width="2" stroke-linecap="round" stroke-linejoin="round" />
    </g>
    <defs>
        <clipPath id="clip0_3378_3057">
            <rect width="24" height="24" fill="white" transform="translate(5 5)" />
        </clipPath>
    </defs>
</svg>
