<svg viewBox="0 0 21 18" fill="none" xmlns="http://www.w3.org/2000/svg">
    <path
        d="M8.56096 5V3C8.56096 2.46957 8.7751 1.96086 9.15628 1.58579C9.53745 1.21071 10.0544 1 10.5935 1H17.7073C18.2464 1 18.7633 1.21071 19.1445 1.58579C19.5257 1.96086 19.7398 2.46957 19.7398 3V15C19.7398 15.5304 19.5257 16.0391 19.1445 16.4142C18.7633 16.7893 18.2464 17 17.7073 17H10.5935C10.0544 17 9.53745 16.7893 9.15628 16.4142C8.7751 16.0391 8.56096 15.5304 8.56096 15V13M13.6423 9H1.44714M1.44714 9L4.49592 6M1.44714 9L4.49592 12"
        stroke="currentColor"
        stroke-width="2"
        stroke-linecap="round"
        stroke-linejoin="round"
    />
</svg> 