<svg viewBox="0 0 24 24" fill="none" xmlns="http://www.w3.org/2000/svg">
  <g clip-path="url(#clip0_28661_59)">
    <path
      d="M9 8V6C9 5.46957 9.1724 4.96086 9.47928 4.58579C9.78616 4.21071 10.2024 4 10.6364 4H16.3636C16.7976 4 17.2138 4.21071 17.5207 4.58579C17.8276 4.96086 18 5.46957 18 6V18C18 18.5304 17.8276 19.0391 17.5207 19.4142C17.2138 19.7893 16.7976 20 16.3636 20H10.6364C10.2024 20 9.78616 19.7893 9.47928 19.4142C9.1724 19.0391 9 18.5304 9 18V16"
      stroke="currentColor"
      stroke-width="2"
      stroke-linecap="round"
      stroke-linejoin="round"
    />
    <path
      d="M19 6H20.3636C20.7976 6 21.2138 6.1712 21.5207 6.47595C21.8276 6.7807 22 7.19402 22 7.625V17.375C22 17.806 21.8276 18.2193 21.5207 18.524C21.2138 18.8288 20.7976 19 20.3636 19H19"
      stroke="currentColor"
      stroke-width="2"
      stroke-linecap="round"
      stroke-linejoin="round"
    />
    <path
      d="M13.5 12H3M3 12L6 9M3 12L6 15"
      stroke="currentColor"
      stroke-width="2"
      stroke-linecap="round"
      stroke-linejoin="round"
    />
  </g>
  <defs>
    <clipPath id="clip0_28661_59">
      <rect width="24" height="24" fill="white" />
    </clipPath>
  </defs>
</svg>

